<svg width="335" height="67" viewBox="0 0 335 67" fill="none" xmlns="http://www.w3.org/2000/svg">
<path d="M144.382 143C139.864 143 128.943 141.435 122.541 126.301L101.077 76.2054C98.0641 69.0736 87.3319 62.4637 79.2356 62.4637L-33.7357 62.8116C-41.4554 62.8116 -47.8571 57.0715 -47.8571 49.7658C-47.8571 42.6341 -41.6437 36.72 -33.7357 36.72L79.2356 36.3721H79.4239C99.1939 36.3721 120.282 49.5919 127.625 66.6384L144.759 106.646L183.546 15.8466C189.383 2.27899 199.738 0.365598 204.069 0.0177089C208.399 -0.156235 218.943 0.713482 226.287 13.5854L245.868 47.8524C249.257 53.7665 259.425 59.5067 266.768 59.5067H343.212C350.932 59.5067 357.333 65.4208 357.333 72.5525C357.333 79.6842 350.932 85.5984 343.212 85.5984H266.768C248.881 85.5984 229.299 74.6399 221.015 60.0285L206.328 34.2848L166.788 126.301C159.822 141.261 148.713 143 144.382 143Z" fill="url(#paint0_linear_1_621)" fill-opacity="0.08"/>
<defs>
<linearGradient id="paint0_linear_1_621" x1="-11.6984" y1="52" x2="243.952" y2="90.343" gradientUnits="userSpaceOnUse">
<stop stop-color="white" stop-opacity="0"/>
<stop offset="1" stop-color="white"/>
</linearGradient>
</defs>
</svg>
